<mxfile host="Electron" modified="2025-03-26T07:18:23.926Z" agent="Mozilla/5.0 (Windows NT 10.0; Win64; x64) AppleWebKit/537.36 (KHTML, like Gecko) draw.io/21.7.5 Chrome/114.0.5735.289 Electron/25.8.1 Safari/537.36" etag="OWksyGOtk6i_sD69AdGq" version="21.7.5" type="device">
  <diagram name="Página-1" id="qtaVSNm_Gsr5qT_-q2Md">
    <mxGraphModel dx="922" dy="827" grid="1" gridSize="10" guides="1" tooltips="1" connect="1" arrows="1" fold="1" page="1" pageScale="1" pageWidth="1169" pageHeight="827" math="0" shadow="0">
      <root>
        <mxCell id="0" />
        <mxCell id="1" parent="0" />
        <mxCell id="mBdIRcUrYhiwxKVuvSbA-1" value="" style="rounded=0;whiteSpace=wrap;html=1;" vertex="1" parent="1">
          <mxGeometry x="190" y="70" width="750" height="740" as="geometry" />
        </mxCell>
        <mxCell id="mBdIRcUrYhiwxKVuvSbA-2" value="Usuario" style="shape=umlActor;verticalLabelPosition=bottom;verticalAlign=top;html=1;outlineConnect=0;" vertex="1" parent="1">
          <mxGeometry x="70" y="200" width="70" height="140" as="geometry" />
        </mxCell>
        <mxCell id="mBdIRcUrYhiwxKVuvSbA-3" value="sistema de cursos de entrenamiento para ayudar &lt;br&gt;a la gente a prepararse un examen de certificación CISCO" style="text;html=1;strokeColor=none;fillColor=none;align=center;verticalAlign=middle;whiteSpace=wrap;rounded=0;" vertex="1" parent="1">
          <mxGeometry x="190" y="70" width="330" height="30" as="geometry" />
        </mxCell>
        <mxCell id="mBdIRcUrYhiwxKVuvSbA-4" value="matricularse al examen" style="ellipse;whiteSpace=wrap;html=1;" vertex="1" parent="1">
          <mxGeometry x="260" y="280" width="130" height="60" as="geometry" />
        </mxCell>
        <mxCell id="mBdIRcUrYhiwxKVuvSbA-5" value="Servidor" style="shape=umlActor;verticalLabelPosition=bottom;verticalAlign=top;html=1;outlineConnect=0;" vertex="1" parent="1">
          <mxGeometry x="70" y="510" width="70" height="140" as="geometry" />
        </mxCell>
        <mxCell id="mBdIRcUrYhiwxKVuvSbA-6" value="Servidor" style="shape=umlActor;verticalLabelPosition=bottom;verticalAlign=top;html=1;outlineConnect=0;" vertex="1" parent="1">
          <mxGeometry x="70" y="510" width="70" height="140" as="geometry" />
        </mxCell>
        <mxCell id="mBdIRcUrYhiwxKVuvSbA-7" value="solicitar un cuestionario al servidor" style="ellipse;whiteSpace=wrap;html=1;" vertex="1" parent="1">
          <mxGeometry x="260" y="160" width="130" height="60" as="geometry" />
        </mxCell>
        <mxCell id="mBdIRcUrYhiwxKVuvSbA-8" value="toma una bateria de preguntas de forma aleatoria" style="ellipse;whiteSpace=wrap;html=1;" vertex="1" parent="1">
          <mxGeometry x="260" y="610" width="130" height="60" as="geometry" />
        </mxCell>
        <mxCell id="mBdIRcUrYhiwxKVuvSbA-9" value="crea un cuestionario" style="ellipse;whiteSpace=wrap;html=1;" vertex="1" parent="1">
          <mxGeometry x="470" y="610" width="130" height="60" as="geometry" />
        </mxCell>
        <mxCell id="mBdIRcUrYhiwxKVuvSbA-10" value="corregir respuestas" style="ellipse;whiteSpace=wrap;html=1;" vertex="1" parent="1">
          <mxGeometry x="660" y="500" width="130" height="60" as="geometry" />
        </mxCell>
        <mxCell id="mBdIRcUrYhiwxKVuvSbA-11" value="dar resultados al usuario" style="ellipse;whiteSpace=wrap;html=1;" vertex="1" parent="1">
          <mxGeometry x="420" y="500" width="130" height="60" as="geometry" />
        </mxCell>
        <mxCell id="mBdIRcUrYhiwxKVuvSbA-12" value="realizar pago" style="ellipse;whiteSpace=wrap;html=1;" vertex="1" parent="1">
          <mxGeometry x="500" y="280" width="130" height="60" as="geometry" />
        </mxCell>
        <mxCell id="mBdIRcUrYhiwxKVuvSbA-13" value="por tarjeta" style="ellipse;whiteSpace=wrap;html=1;" vertex="1" parent="1">
          <mxGeometry x="530" y="170" width="130" height="60" as="geometry" />
        </mxCell>
        <mxCell id="mBdIRcUrYhiwxKVuvSbA-14" value="por transferencia bancaria" style="ellipse;whiteSpace=wrap;html=1;" vertex="1" parent="1">
          <mxGeometry x="690" y="220" width="130" height="60" as="geometry" />
        </mxCell>
        <mxCell id="mBdIRcUrYhiwxKVuvSbA-15" value="eligir la fecha y hora" style="ellipse;whiteSpace=wrap;html=1;" vertex="1" parent="1">
          <mxGeometry x="680" y="340" width="130" height="60" as="geometry" />
        </mxCell>
        <mxCell id="mBdIRcUrYhiwxKVuvSbA-16" value="sacar un listado de fechas disponibles" style="ellipse;whiteSpace=wrap;html=1;" vertex="1" parent="1">
          <mxGeometry x="490" y="390" width="130" height="60" as="geometry" />
        </mxCell>
        <mxCell id="mBdIRcUrYhiwxKVuvSbA-17" value="" style="endArrow=none;html=1;rounded=0;exitX=1;exitY=0.3333333333333333;exitDx=0;exitDy=0;exitPerimeter=0;entryX=0;entryY=0.5;entryDx=0;entryDy=0;" edge="1" parent="1" source="mBdIRcUrYhiwxKVuvSbA-2" target="mBdIRcUrYhiwxKVuvSbA-7">
          <mxGeometry width="50" height="50" relative="1" as="geometry">
            <mxPoint x="530" y="450" as="sourcePoint" />
            <mxPoint x="580" y="400" as="targetPoint" />
          </mxGeometry>
        </mxCell>
        <mxCell id="mBdIRcUrYhiwxKVuvSbA-18" value="" style="endArrow=none;html=1;rounded=0;entryX=0;entryY=0.5;entryDx=0;entryDy=0;exitX=1;exitY=0.3333333333333333;exitDx=0;exitDy=0;exitPerimeter=0;" edge="1" parent="1" source="mBdIRcUrYhiwxKVuvSbA-2" target="mBdIRcUrYhiwxKVuvSbA-4">
          <mxGeometry width="50" height="50" relative="1" as="geometry">
            <mxPoint x="140" y="250" as="sourcePoint" />
            <mxPoint x="270" y="200" as="targetPoint" />
          </mxGeometry>
        </mxCell>
        <mxCell id="mBdIRcUrYhiwxKVuvSbA-19" value="" style="endArrow=none;html=1;rounded=0;exitX=1;exitY=0.3333333333333333;exitDx=0;exitDy=0;exitPerimeter=0;entryX=0;entryY=0;entryDx=0;entryDy=0;" edge="1" parent="1" source="mBdIRcUrYhiwxKVuvSbA-6" target="mBdIRcUrYhiwxKVuvSbA-8">
          <mxGeometry width="50" height="50" relative="1" as="geometry">
            <mxPoint x="160" y="267" as="sourcePoint" />
            <mxPoint x="280" y="210" as="targetPoint" />
          </mxGeometry>
        </mxCell>
        <mxCell id="mBdIRcUrYhiwxKVuvSbA-20" value="" style="endArrow=none;html=1;rounded=0;exitX=1;exitY=0.3333333333333333;exitDx=0;exitDy=0;exitPerimeter=0;entryX=0;entryY=0.5;entryDx=0;entryDy=0;" edge="1" parent="1" source="mBdIRcUrYhiwxKVuvSbA-6" target="mBdIRcUrYhiwxKVuvSbA-16">
          <mxGeometry width="50" height="50" relative="1" as="geometry">
            <mxPoint x="170" y="277" as="sourcePoint" />
            <mxPoint x="290" y="220" as="targetPoint" />
          </mxGeometry>
        </mxCell>
        <mxCell id="mBdIRcUrYhiwxKVuvSbA-21" value="" style="endArrow=block;endSize=16;endFill=0;html=1;rounded=0;entryX=0.5;entryY=0;entryDx=0;entryDy=0;exitX=0.5;exitY=1;exitDx=0;exitDy=0;" edge="1" parent="1" source="mBdIRcUrYhiwxKVuvSbA-13" target="mBdIRcUrYhiwxKVuvSbA-12">
          <mxGeometry width="160" relative="1" as="geometry">
            <mxPoint x="480" y="430" as="sourcePoint" />
            <mxPoint x="640" y="430" as="targetPoint" />
          </mxGeometry>
        </mxCell>
        <mxCell id="mBdIRcUrYhiwxKVuvSbA-22" value="" style="endArrow=block;endSize=16;endFill=0;html=1;rounded=0;entryX=1;entryY=0;entryDx=0;entryDy=0;exitX=0;exitY=0.5;exitDx=0;exitDy=0;" edge="1" parent="1" source="mBdIRcUrYhiwxKVuvSbA-14" target="mBdIRcUrYhiwxKVuvSbA-12">
          <mxGeometry width="160" relative="1" as="geometry">
            <mxPoint x="605" y="240" as="sourcePoint" />
            <mxPoint x="575" y="290" as="targetPoint" />
          </mxGeometry>
        </mxCell>
        <mxCell id="mBdIRcUrYhiwxKVuvSbA-23" value="&amp;lt;&amp;lt;include&amp;gt;&amp;gt;" style="endArrow=open;endSize=12;dashed=1;html=1;rounded=0;entryX=0;entryY=0.5;entryDx=0;entryDy=0;" edge="1" parent="1">
          <mxGeometry width="160" relative="1" as="geometry">
            <mxPoint x="390" y="309.5" as="sourcePoint" />
            <mxPoint x="500" y="309.5" as="targetPoint" />
          </mxGeometry>
        </mxCell>
        <mxCell id="mBdIRcUrYhiwxKVuvSbA-25" value="&amp;lt;&amp;lt;include&amp;gt;&amp;gt;" style="endArrow=open;endSize=12;dashed=1;html=1;rounded=0;entryX=0;entryY=0.5;entryDx=0;entryDy=0;exitX=1;exitY=1;exitDx=0;exitDy=0;" edge="1" parent="1" source="mBdIRcUrYhiwxKVuvSbA-12" target="mBdIRcUrYhiwxKVuvSbA-15">
          <mxGeometry width="160" relative="1" as="geometry">
            <mxPoint x="400" y="319.5" as="sourcePoint" />
            <mxPoint x="510" y="319.5" as="targetPoint" />
          </mxGeometry>
        </mxCell>
        <mxCell id="mBdIRcUrYhiwxKVuvSbA-26" value="&amp;lt;&amp;lt;include&amp;gt;&amp;gt;" style="endArrow=open;endSize=12;dashed=1;html=1;rounded=0;entryX=1;entryY=0.5;entryDx=0;entryDy=0;exitX=0;exitY=1;exitDx=0;exitDy=0;" edge="1" parent="1" source="mBdIRcUrYhiwxKVuvSbA-15" target="mBdIRcUrYhiwxKVuvSbA-16">
          <mxGeometry width="160" relative="1" as="geometry">
            <mxPoint x="410" y="329.5" as="sourcePoint" />
            <mxPoint x="520" y="329.5" as="targetPoint" />
          </mxGeometry>
        </mxCell>
        <mxCell id="mBdIRcUrYhiwxKVuvSbA-27" value="&amp;lt;&amp;lt;include&amp;gt;&amp;gt;" style="endArrow=open;endSize=12;dashed=1;html=1;rounded=0;entryX=0;entryY=0.5;entryDx=0;entryDy=0;exitX=1;exitY=0.5;exitDx=0;exitDy=0;" edge="1" parent="1" source="mBdIRcUrYhiwxKVuvSbA-8" target="mBdIRcUrYhiwxKVuvSbA-9">
          <mxGeometry width="160" relative="1" as="geometry">
            <mxPoint x="420" y="339.5" as="sourcePoint" />
            <mxPoint x="530" y="339.5" as="targetPoint" />
          </mxGeometry>
        </mxCell>
        <mxCell id="mBdIRcUrYhiwxKVuvSbA-28" value="&amp;lt;&amp;lt;include&amp;gt;&amp;gt;" style="endArrow=open;endSize=12;dashed=1;html=1;rounded=0;entryX=0.5;entryY=1;entryDx=0;entryDy=0;exitX=1;exitY=0.5;exitDx=0;exitDy=0;" edge="1" parent="1" source="mBdIRcUrYhiwxKVuvSbA-9" target="mBdIRcUrYhiwxKVuvSbA-10">
          <mxGeometry width="160" relative="1" as="geometry">
            <mxPoint x="430" y="349.5" as="sourcePoint" />
            <mxPoint x="540" y="349.5" as="targetPoint" />
          </mxGeometry>
        </mxCell>
        <mxCell id="mBdIRcUrYhiwxKVuvSbA-29" value="&amp;lt;&amp;lt;extends&amp;gt;&amp;gt;" style="endArrow=open;endSize=12;dashed=1;html=1;rounded=0;entryX=0;entryY=0.5;entryDx=0;entryDy=0;exitX=1;exitY=0.5;exitDx=0;exitDy=0;" edge="1" parent="1" source="mBdIRcUrYhiwxKVuvSbA-11" target="mBdIRcUrYhiwxKVuvSbA-10">
          <mxGeometry width="160" relative="1" as="geometry">
            <mxPoint x="440" y="359.5" as="sourcePoint" />
            <mxPoint x="550" y="359.5" as="targetPoint" />
          </mxGeometry>
        </mxCell>
      </root>
    </mxGraphModel>
  </diagram>
</mxfile>
